<?xml version="1.0" standalone="no"?>
<!DOCTYPE svg PUBLIC "-//W3C//DTD SVG 1.1//EN" "http://www.w3.org/Graphics/SVG/1.1/DTD/svg11.dtd" >
<!--
2013-9-30: Created.
-->
<svg>
<metadata>
Created by iconfont
</metadata>
<defs>

<font id="iconfont" horiz-adv-x="1024" >
  <font-face
    font-family="iconfont"
    font-weight="500"
    font-stretch="normal"
    units-per-em="1024"
    ascent="896"
    descent="-128"
  />
    <missing-glyph />
    
    <glyph glyph-name="x1" unicode="&#58909;" d="M215.6544 728.064c-38.912-7.7824-59.392-50.176-42.3936-87.6544 2.2528-4.9152 48.5376-52.8384 127.5904-131.8912l124.1088-124.5184-124.1088-124.3136c-79.0528-79.2576-125.3376-127.1808-127.5904-132.096-14.9504-33.1776-1.4336-69.632 31.3344-84.1728 11.8784-5.12 30.72-5.5296 45.2608-0.6144 10.6496 3.4816 17.8176 10.4448 136.8064 128.8192l125.3376 125.1328 125.5424-125.1328c118.784-118.3744 125.952-125.3376 136.6016-128.8192 53.6576-17.8176 99.7376 33.1776 76.5952 84.7872-3.8912 8.6016-576.1024 583.0656-589.2096 591.4624-7.3728 4.9152-27.8528 11.264-34.2016 10.8544-1.6384-0.2048-6.9632-1.024-11.6736-1.8432zM780.9024 727.04c-5.9392-1.6384-14.336-5.12-18.432-7.9872-4.3008-2.6624-57.5488-54.8864-118.3744-115.712l-110.592-110.7968 43.6224-43.4176 43.4176-43.6224 109.7728 109.568c60.2112 60.2112 112.2304 113.2544 115.3024 117.76 7.9872 11.264 11.264 22.3232 11.0592 37.2736-0.2048 38.0928-38.912 67.1744-75.776 56.9344z"  horiz-adv-x="1024" />

    
    <glyph glyph-name="x" unicode="&#58908;" d=""  horiz-adv-x="1024" />

    
    <glyph glyph-name="xiala1" unicode="&#59214;" d="M487.424 241.664L292.352 467.968A41.472 41.472 0 0 0 316.416 537.6h390.656a40.96 40.96 0 0 0 24.576-69.12l-195.072-226.304a31.744 31.744 0 0 0-49.152-0.512z"  horiz-adv-x="1024" />

    
    <glyph glyph-name="about_active" unicode="&#58906;" d="M451.584 893.5424c-21.504-2.4576-61.0304-10.4448-83.7632-16.9984C285.9008 852.7872 211.1488 808.3456 149.504 746.496 66.1504 663.3472 14.7456 556.4416 2.2528 440.9344c-2.8672-25.6-2.8672-88.2688 0-113.8688C14.7456 211.5584 66.1504 104.6528 149.504 21.504c83.1488-83.3536 190.0544-134.7584 305.5616-147.2512 25.6-2.8672 88.2688-2.8672 113.8688 0 115.5072 12.4928 222.4128 63.8976 305.5616 147.2512 83.3536 83.1488 134.7584 190.0544 147.2512 305.5616 3.2768 29.0816 2.6624 90.9312-0.8192 120.4224-14.1312 114.8928-63.8976 216.2688-146.432 299.008-82.944 83.1488-190.0544 134.7584-305.5616 147.2512-23.552 2.6624-94.0032 2.4576-117.3504-0.2048z m78.4384-218.5216c13.7216-6.9632 20.8896-19.0464 20.8896-35.0208 0-22.7328-16.1792-38.912-38.912-38.912s-38.912 16.1792-38.912 38.912 15.7696 38.7072 38.5024 38.912c6.7584 0 13.7216-1.4336 18.432-3.8912z m0-155.648c8.6016-4.5056 12.6976-8.6016 18.0224-18.6368 3.6864-6.7584 3.8912-15.36 3.8912-195.584s-0.2048-188.8256-3.8912-195.584c-8.192-15.36-19.6608-22.528-36.0448-22.528-16.384 0-27.8528 7.168-36.0448 22.528-3.6864 6.7584-3.8912 15.36-3.8912 195.584v188.416l4.3008 8.192c4.9152 9.216 9.216 13.312 18.2272 18.0224 8.6016 4.5056 26.0096 4.3008 35.4304-0.4096z"  horiz-adv-x="1024" />

    
    <glyph glyph-name="about" unicode="&#58907;" d="M451.584 893.5424c-21.504-2.4576-61.0304-10.4448-83.7632-16.9984C285.9008 852.7872 211.1488 808.3456 149.504 746.496 66.1504 663.3472 14.7456 556.4416 2.2528 440.9344c-2.8672-25.6-2.8672-88.2688 0-113.8688C14.7456 211.5584 66.1504 104.6528 149.504 21.504c83.1488-83.3536 190.0544-134.7584 305.5616-147.2512 25.6-2.8672 88.2688-2.8672 113.8688 0 115.5072 12.4928 222.4128 63.8976 305.5616 147.2512 83.3536 83.1488 134.7584 190.0544 147.2512 305.5616 3.2768 29.0816 2.6624 90.9312-0.8192 120.4224-14.1312 114.8928-63.8976 216.2688-146.432 299.008-82.944 83.1488-190.0544 134.7584-305.5616 147.2512-23.552 2.6624-94.0032 2.4576-117.3504-0.2048zM583.68 807.936c93.7984-16.384 171.4176-57.7536 238.7968-127.5904 60.6208-62.6688 97.8944-137.0112 113.664-225.6896 3.8912-22.3232 4.7104-33.792 4.7104-70.656s-0.8192-48.3328-4.7104-70.656c-12.0832-67.9936-35.84-124.7232-76.1856-182.272-16.9984-24.1664-70.8608-78.0288-95.0272-95.0272-57.5488-40.3456-114.2784-64.1024-182.272-76.1856-38.2976-6.7584-103.0144-6.7584-141.312 0-67.3792 11.8784-125.1328 36.0448-181.248 75.5712-25.8048 18.0224-78.6432 70.8608-96.6656 96.6656-39.5264 56.1152-63.6928 113.8688-75.5712 181.248-3.8912 22.3232-4.7104 33.792-4.7104 70.656s0.8192 48.3328 4.7104 70.656c11.8784 67.3792 36.0448 125.1328 75.5712 181.248 18.0224 25.8048 70.8608 78.6432 96.6656 96.6656C323.3792 777.216 391.5776 803.2256 467.968 812.032c26.8288 3.072 86.6304 0.8192 115.712-4.096zM490.0864 675.6352c-12.6976-7.5776-19.0464-19.456-19.0464-35.6352 0-25.1904 15.7696-40.96 40.96-40.96s40.96 15.7696 40.96 40.96-15.7696 40.96-41.1648 40.96c-10.4448 0-14.9504-1.024-21.7088-5.3248zM490.0864 519.9872c-4.9152-2.8672-11.0592-9.0112-13.9264-13.9264l-5.12-8.8064v-384.2048l5.12-8.8064c7.5776-12.9024 19.456-19.2512 35.84-19.2512s28.2624 6.3488 35.84 19.2512l5.12 8.8064V497.2544l-5.12 8.8064c-7.5776 12.9024-19.456 19.2512-36.0448 19.2512-10.4448 0-14.9504-1.024-21.7088-5.3248z"  horiz-adv-x="1024" />

    
    <glyph glyph-name="gengxin" unicode="&#59211;" d="M185.856 438.784a42.496 42.496 0 0 1 55.296 27.648A272.896 272.896 0 0 0 375.808 624.64a268.288 268.288 0 0 0 204.8 13.312 293.888 293.888 0 0 0 126.464-91.136l-25.088 5.632a43.008 43.008 0 0 1-51.2-33.792 46.592 46.592 0 0 1 34.816-53.76l122.88-28.672a43.008 43.008 0 0 1 51.2 29.184l30.72 107.008a46.08 46.08 0 0 1-28.672 57.344 43.008 43.008 0 0 1-55.296-27.648l-2.048-13.312a385.536 385.536 0 0 1-177.152 133.12 353.792 353.792 0 0 1-271.872-17.408 358.4 358.4 0 0 1-178.176-209.92 46.08 46.08 0 0 1 28.672-55.808z m656.384-142.848a43.008 43.008 0 0 1-55.808-27.648 273.408 273.408 0 0 0-134.656-158.208 266.752 266.752 0 0 0-204.8-13.824 290.816 290.816 0 0 0-126.464 91.136l25.088-5.632a42.496 42.496 0 0 1 51.2 33.792 46.592 46.592 0 0 1-34.816 53.76l-122.88 28.672a42.496 42.496 0 0 1-51.2-29.184L153.6 162.304a46.592 46.592 0 0 1 28.672-57.344 42.496 42.496 0 0 1 55.296 27.648l3.584 11.776a387.584 387.584 0 0 1 177.152-133.12 354.816 354.816 0 0 1 272.384 17.408 361.984 361.984 0 0 1 179.712 209.92 46.592 46.592 0 0 1-28.16 57.344z"  horiz-adv-x="1024" />

    
    <glyph glyph-name="more" unicode="&#58905;" d="M736.492308 879.852308c-9.846154-3.741538-19.692308-12.8-115.79077-108.701539-118.153846-117.76-115.593846-114.609231-115.593846-140.996923 0.196923-25.796923-2.56-22.449231 112.836923-138.24 117.169231-117.563077 114.018462-114.806154 141.193847-114.609231 12.406154 0 17.723077 0.984615 24.615384 4.529231 12.996923 6.498462 215.04 208.344615 222.129231 221.735385 4.529231 8.467692 5.316923 12.209231 5.316923 26.584615s-0.787692 18.116923-5.316923 26.584616c-3.741538 7.089231-34.067692 38.596923-111.261539 115.396923-100.430769 100.036923-106.535385 105.747692-116.578461 108.701538-13.981538 4.332308-28.356923 4.135385-41.550769-0.984615z m32.098461-123.864616c6.104615-3.150769 111.261538-108.110769 114.806154-114.412307 3.544615-6.695385 3.544615-15.950769 0-22.843077-1.575385-2.953846-27.569231-29.735385-57.698461-59.667693-57.698462-57.501538-59.667692-58.88-73.846154-55.926153-8.664615 1.772308-116.578462 108.701538-119.926154 118.744615-4.923077 15.163077-3.938462 16.738462 54.941538 76.012308 29.932308 30.129231 57.304615 55.926154 60.455385 57.501538 7.286154 3.150769 15.556923 3.544615 21.267692 0.590769zM108.898462 823.532308c-19.692308-6.892308-33.673846-22.646154-38.006154-42.535385-1.575385-6.892308-1.969231-54.744615-1.575385-156.750769l0.590769-146.707692 5.513846-11.224616c6.301538-12.603077 15.753846-21.858462 28.75077-27.963077 9.058462-4.135385 10.633846-4.135385 161.673846-4.135384 151.04 0 152.615385 0 161.673846 4.135384 12.996923 6.104615 22.449231 15.36 28.750769 27.963077l5.513846 11.224616v305.230769l-5.513846 11.224615c-6.301538 12.603077-15.753846 21.858462-28.750769 27.963077-8.861538 4.135385-11.224615 4.135385-158.72 4.529231-139.618462 0.393846-150.252308 0.196923-159.901538-2.953846zM350.129231 724.676923c3.544615-2.166154 8.073846-6.695385 10.24-10.24 3.741538-6.104615 3.938462-10.043077 3.938461-84.283077 0-74.24-0.196923-78.178462-3.938461-84.283077-2.166154-3.544615-6.695385-8.073846-10.24-10.24-6.104615-3.741538-10.043077-3.938462-84.283077-3.938461-74.24 0-78.178462 0.196923-84.283077 3.938461-3.544615 2.166154-8.073846 6.695385-10.24 10.24-3.741538 6.104615-3.938462 10.043077-3.938462 84.283077 0 74.24 0.196923 78.178462 3.938462 84.283077 2.166154 3.544615 6.695385 8.073846 10.24 10.24 6.104615 3.741538 10.043077 3.938462 84.283077 3.938462 74.24 0 78.178462-0.196923 84.283077-3.938462zM108.898462 331.224615c-19.692308-6.892308-33.673846-22.646154-38.006154-42.535384-1.575385-6.892308-1.969231-54.744615-1.575385-156.750769l0.590769-146.707693 5.513846-11.224615c6.301538-12.603077 15.753846-21.858462 28.75077-27.963077 9.058462-4.135385 10.633846-4.135385 161.673846-4.135385 151.04 0 152.615385 0 161.673846 4.135385 12.996923 6.104615 22.449231 15.36 28.750769 27.963077l5.513846 11.224615v305.230769l-5.513846 11.224616c-6.301538 12.603077-15.753846 21.858462-28.750769 27.963077-8.861538 4.135385-11.224615 4.135385-158.72 4.529231-139.618462 0.393846-150.252308 0.196923-159.901538-2.953847zM350.129231 232.369231c3.544615-2.166154 8.073846-6.695385 10.24-10.24 3.741538-6.104615 3.938462-10.043077 3.938461-84.283077 0-74.24-0.196923-78.178462-3.938461-84.283077-2.166154-3.544615-6.695385-8.073846-10.24-10.24-6.104615-3.741538-10.043077-3.938462-84.283077-3.938462-74.24 0-78.178462 0.196923-84.283077 3.938462-3.544615 2.166154-8.073846 6.695385-10.24 10.24-3.741538 6.104615-3.938462 10.043077-3.938462 84.283077 0 74.24 0.196923 78.178462 3.938462 84.283077 2.166154 3.544615 6.695385 8.073846 10.24 10.24 6.104615 3.741538 10.043077 3.938462 84.283077 3.938461 74.24 0 78.178462-0.196923 84.283077-3.938461zM601.206154 331.224615c-19.692308-6.892308-33.673846-22.646154-38.006154-42.535384-1.575385-6.892308-1.969231-54.744615-1.575385-156.750769l0.59077-146.707693 5.513846-11.224615c6.301538-12.603077 15.753846-21.858462 28.750769-27.963077 9.058462-4.135385 10.633846-4.135385 161.673846-4.135385 151.04 0 152.615385 0 161.673846 4.135385 12.996923 6.104615 22.449231 15.36 28.75077 27.963077l5.513846 11.224615v305.230769l-5.513846 11.224616c-6.301538 12.603077-15.753846 21.858462-28.75077 27.963077-8.861538 4.135385-11.224615 4.135385-158.72 4.529231-139.618462 0.393846-150.252308 0.196923-159.901538-2.953847zM842.436923 232.369231c3.544615-2.166154 8.073846-6.695385 10.24-10.24 3.741538-6.104615 3.938462-10.043077 3.938462-84.283077 0-74.24-0.196923-78.178462-3.938462-84.283077-2.166154-3.544615-6.695385-8.073846-10.24-10.24-6.104615-3.741538-10.043077-3.938462-84.283077-3.938462-74.24 0-78.178462 0.196923-84.283077 3.938462-3.544615 2.166154-8.073846 6.695385-10.24 10.24-3.741538 6.104615-3.938462 10.043077-3.938461 84.283077 0 74.24 0.196923 78.178462 3.938461 84.283077 2.166154 3.544615 6.695385 8.073846 10.24 10.24 6.104615 3.741538 10.043077 3.938462 84.283077 3.938461 74.24 0 78.178462-0.196923 84.283077-3.938461z"  horiz-adv-x="1024" />

    
    <glyph glyph-name="new" unicode="&#58889;" d="M451.584 893.5424c-21.504-2.4576-61.0304-10.4448-83.7632-16.9984C285.9008 852.7872 211.1488 808.3456 149.504 746.496 66.1504 663.3472 14.7456 556.4416 2.2528 440.9344c-2.8672-25.6-2.8672-88.2688 0-113.8688C14.7456 211.5584 66.1504 104.6528 149.504 21.504c83.1488-83.3536 190.0544-134.7584 305.5616-147.2512 25.6-2.8672 88.2688-2.8672 113.8688 0 115.5072 12.4928 222.4128 63.8976 305.5616 147.2512 83.3536 83.1488 134.7584 190.0544 147.2512 305.5616 3.2768 29.0816 2.6624 90.9312-0.8192 120.4224-14.1312 114.8928-63.8976 216.2688-146.432 299.008-82.944 83.1488-190.0544 134.7584-305.5616 147.2512-23.552 2.6624-94.0032 2.4576-117.3504-0.2048zM571.392 811.008c138.0352-19.456 257.2288-103.2192 322.56-226.7136 21.7088-41.3696 38.2976-92.9792 45.056-140.9024 3.8912-28.0576 3.8912-90.7264 0-118.784-19.456-138.0352-103.2192-257.2288-226.7136-322.56-41.3696-21.7088-92.9792-38.2976-140.9024-45.056-28.0576-3.8912-90.7264-3.8912-118.784 0-155.648 21.9136-286.3104 125.7472-343.04 272.384-10.4448 27.0336-20.2752 65.3312-24.576 95.232-3.8912 28.0576-3.8912 90.7264 0 118.784 21.9136 155.648 125.7472 286.3104 272.384 343.04 26.2144 10.24 65.1264 20.2752 93.184 24.3712 26.8288 3.8912 93.7984 3.8912 120.832 0.2048zM490.0864 732.9792c-4.9152-2.8672-11.0592-9.0112-13.9264-13.9264l-5.12-8.8064v-339.1488l5.12-8.8064c3.072-5.3248 8.8064-11.0592 14.1312-14.1312l8.8064-5.12h339.1488l8.8064 5.12c12.9024 7.5776 19.2512 19.456 19.2512 35.84s-6.3488 28.2624-19.2512 35.84l-8.8064 5.12H552.96V710.2464l-5.12 8.8064c-7.5776 12.9024-19.456 19.2512-36.0448 19.2512-10.4448 0-14.9504-1.024-21.7088-5.3248z"  horiz-adv-x="1024" />

    
    <glyph glyph-name="default_active" unicode="&#58890;" d="M143.9744 892.3136C123.4944 885.1456 108.9536 868.7616 104.448 848.0768c-1.6384-7.3728-2.048-141.9264-1.6384-470.2208l0.6144-459.776 4.3008-9.4208c6.3488-13.5168 15.9744-23.3472 29.0816-29.9008l11.6736-5.7344h727.04l11.6736 5.7344c13.1072 6.5536 22.7328 16.384 29.0816 29.9008l4.3008 9.4208v931.84l-5.7344 11.6736c-6.5536 13.1072-16.384 22.7328-29.9008 29.0816L875.52 894.976l-360.448 0.4096C173.2608 895.7952 154.0096 895.7952 143.9744 892.3136z m625.4592-297.5744c13.9264-5.12 25.1904-22.528 25.1904-38.7072 0-16.1792-11.264-33.5872-25.1904-38.7072-3.8912-1.6384-84.992-2.2528-258.6624-2.2528-244.1216 0-253.1328 0.2048-260.5056 3.8912-28.672 14.7456-29.4912 57.344-1.4336 73.3184l8.192 4.7104h253.3376c174.08 0 255.1808-0.6144 259.072-2.2528z m-164.2496-296.5504c14.9504-6.9632 23.552-20.8896 23.552-38.0928 0-17.2032-8.6016-31.1296-23.552-38.0928-7.7824-3.6864-17.2032-3.8912-175.7184-3.8912-181.248 0-175.5136-0.4096-187.392 10.8544-16.9984 15.7696-16.9984 46.4896 0 62.2592 11.6736 11.0592 5.7344 10.6496 186.9824 10.6496 158.9248 0.2048 168.3456 0 176.128-3.6864z"  horiz-adv-x="1024" />

    
    <glyph glyph-name="statistics" unicode="&#58891;" d="M41.5744 841.1136C21.0944 833.9456 6.5536 817.5616 2.048 796.8768 0.4096 789.504 0 669.0816 0.4096 377.856l0.6144-408.576 4.3008-9.4208c6.3488-13.5168 15.9744-23.3472 29.0816-29.9008l11.6736-5.7344h931.84l11.6736 5.7344c13.1072 6.5536 22.7328 16.384 29.0816 29.9008l4.3008 9.4208v829.44l-5.7344 11.6736c-6.5536 13.1072-16.384 22.7328-29.9008 29.0816l-9.4208 4.3008-462.848 0.4096c-440.1152 0.4096-463.4624 0.4096-473.4976-3.072z m880.64-84.1728c4.3008-2.6624 10.24-8.6016 13.312-13.1072l5.5296-8.3968v-702.8736l-5.5296-8.3968c-3.072-4.5056-9.0112-10.4448-13.312-13.1072l-7.7824-4.9152h-804.864l-7.7824 4.9152c-4.3008 2.6624-10.24 8.6016-13.312 13.1072l-5.5296 8.3968-0.6144 346.9312c-0.2048 240.4352 0.2048 349.3888 1.6384 355.1232 2.6624 9.6256 15.7696 23.3472 24.9856 26.0096 4.3008 1.2288 157.9008 1.8432 406.1184 1.6384l399.36-0.4096 7.7824-4.9152zM498.0736 678.7072c-9.4208-2.8672-22.3232-16.384-24.9856-26.2144-1.4336-5.5296-1.8432-89.9072-1.6384-272.9984l0.6144-264.8064 4.9152-7.7824c2.6624-4.3008 8.6016-10.24 13.1072-13.312 6.9632-4.7104 10.6496-5.5296 21.9136-5.5296 11.264 0 14.9504 0.8192 21.9136 5.5296 4.5056 3.072 10.4448 9.0112 13.1072 13.312l4.9152 7.7824v538.624l-4.9152 7.7824c-9.6256 15.5648-30.9248 23.1424-48.9472 17.6128zM260.5056 518.9632c-9.4208-2.8672-22.3232-16.384-24.9856-26.2144-1.4336-5.5296-2.048-66.1504-1.6384-193.1264l0.6144-184.9344 4.9152-7.7824c2.6624-4.3008 8.6016-10.24 13.1072-13.312 6.9632-4.7104 10.6496-5.5296 21.9136-5.5296 11.264 0 14.9504 0.8192 21.9136 5.5296 4.5056 3.072 10.4448 9.0112 13.1072 13.312l4.9152 7.7824v378.88l-4.9152 7.7824c-9.6256 15.5648-30.9248 23.1424-48.9472 17.6128zM754.0736 381.7472c-9.4208-2.8672-22.3232-16.384-24.9856-26.2144-1.4336-5.7344-2.048-45.6704-1.6384-124.7232l0.6144-116.3264 5.5296-8.3968c8.3968-12.6976 18.432-18.0224 34.4064-18.0224 15.9744 0 26.0096 5.3248 34.4064 18.0224l5.5296 8.3968V356.352l-4.9152 7.7824c-9.6256 15.5648-30.9248 23.1424-48.9472 17.6128z"  horiz-adv-x="1024" />

    
    <glyph glyph-name="default" unicode="&#58894;" d="M143.9744 892.3136C123.4944 885.1456 108.9536 868.7616 104.448 848.0768c-1.6384-7.3728-2.048-141.9264-1.6384-470.2208l0.6144-459.776 4.3008-9.4208c6.3488-13.5168 15.9744-23.3472 29.0816-29.9008l11.6736-5.7344h727.04l11.6736 5.7344c13.1072 6.5536 22.7328 16.384 29.0816 29.9008l4.3008 9.4208v931.84l-5.7344 11.6736c-6.5536 13.1072-16.384 22.7328-29.9008 29.0816L875.52 894.976l-360.448 0.4096C173.2608 895.7952 154.0096 895.7952 143.9744 892.3136z m675.84-84.1728c4.3008-2.6624 10.24-8.6016 13.312-13.1072l5.5296-8.3968v-805.0688l-4.9152-7.7824c-2.6624-4.3008-8.6016-10.24-13.1072-13.312l-8.3968-5.5296H211.7632l-8.3968 5.5296c-4.5056 3.072-10.4448 9.0112-13.1072 13.312l-4.9152 7.7824-0.6144 398.1312c-0.2048 276.0704 0.2048 400.384 1.6384 406.1184 2.6624 9.6256 15.7696 23.3472 24.9856 26.0096 4.096 1.2288 120.0128 1.8432 303.7184 1.6384l296.96-0.4096 7.7824-4.9152zM256 594.7392c-30.9248-12.4928-35.84-53.4528-8.6016-72.4992l9.0112-6.144 250.0608-0.6144c176.3328-0.4096 252.5184 0 258.048 1.6384 9.0112 2.6624 20.8896 12.4928 25.3952 21.2992 4.3008 8.192 4.3008 27.0336 0.2048 35.0208-4.5056 8.3968-13.5168 16.5888-22.528 20.2752-6.7584 2.8672-36.0448 3.2768-257.024 3.072-158.72 0-251.2896-0.8192-254.5664-2.048zM252.928 296.7552c-20.8896-10.8544-29.0816-34.2016-18.8416-54.0672 6.3488-12.4928 16.384-20.0704 30.5152-22.528 7.5776-1.4336 66.9696-2.048 172.032-1.6384l160.3584 0.6144 8.3968 4.5056c23.9616 12.9024 30.5152 42.1888 13.7216 62.0544-2.8672 3.4816-8.8064 8.192-13.1072 10.24-7.5776 3.8912-13.1072 4.096-177.3568 4.096-149.7088 0-170.3936-0.4096-175.7184-3.2768z"  horiz-adv-x="1024" />

    
    <glyph glyph-name="statistics_active" unicode="&#58895;" d="M41.5744 841.1136C21.0944 833.9456 6.5536 817.5616 2.048 796.8768 0.4096 789.504 0 669.0816 0.4096 377.856l0.6144-408.576 4.3008-9.4208c6.3488-13.5168 15.9744-23.3472 29.0816-29.9008l11.6736-5.7344h931.84l11.6736 5.7344c13.1072 6.5536 22.7328 16.384 29.0816 29.9008l4.3008 9.4208v829.44l-5.7344 11.6736c-6.5536 13.1072-16.384 22.7328-29.9008 29.0816l-9.4208 4.3008-462.848 0.4096c-440.1152 0.4096-463.4624 0.4096-473.4976-3.072zM534.528 673.9968c4.3008-2.6624 9.8304-8.6016 12.4928-12.9024l4.9152-7.7824v-538.624l-4.9152-7.7824c-2.6624-4.3008-8.6016-10.24-13.1072-13.312-6.9632-4.7104-10.6496-5.5296-21.9136-5.5296-11.264 0-14.9504 0.8192-21.9136 5.5296-4.5056 3.072-10.4448 9.0112-13.1072 13.312l-4.9152 7.7824-0.6144 264.8064c-0.2048 183.0912 0.2048 267.4688 1.6384 272.9984 2.6624 9.8304 15.5648 23.3472 24.9856 26.2144 10.8544 3.2768 27.648 1.2288 36.4544-4.7104z m-237.568-159.744c4.3008-2.6624 9.8304-8.6016 12.4928-12.9024l4.9152-7.7824v-378.88l-4.9152-7.7824c-2.6624-4.3008-8.6016-10.24-13.1072-13.312-6.9632-4.7104-10.6496-5.5296-21.9136-5.5296-11.264 0-14.9504 0.8192-21.9136 5.5296-4.5056 3.072-10.4448 9.0112-13.1072 13.312l-4.9152 7.7824-0.6144 184.9344c-0.4096 126.976 0.2048 187.5968 1.6384 193.1264 2.6624 9.8304 15.5648 23.3472 24.9856 26.2144 10.8544 3.2768 27.648 1.2288 36.4544-4.7104z m493.568-137.216c4.3008-2.6624 9.8304-8.6016 12.4928-12.9024l4.9152-7.7824v-241.8688l-5.5296-8.3968c-8.3968-12.6976-18.432-18.0224-34.4064-18.0224-15.9744 0-26.0096 5.3248-34.4064 18.0224l-5.5296 8.3968-0.6144 116.3264c-0.4096 79.0528 0.2048 118.9888 1.6384 124.7232 2.6624 9.8304 15.5648 23.3472 24.9856 26.2144 10.8544 3.2768 27.648 1.2288 36.4544-4.7104z"  horiz-adv-x="1024" />

    
    <glyph glyph-name="new_active" unicode="&#58888;" d="M451.584 893.5424c-21.504-2.4576-61.0304-10.4448-83.7632-16.9984C285.9008 852.7872 211.1488 808.3456 149.504 746.496 66.1504 663.3472 14.7456 556.4416 2.2528 440.9344c-2.8672-25.6-2.8672-88.2688 0-113.8688C14.7456 211.5584 66.1504 104.6528 149.504 21.504c83.1488-83.3536 190.0544-134.7584 305.5616-147.2512 25.6-2.8672 88.2688-2.8672 113.8688 0 115.5072 12.4928 222.4128 63.8976 305.5616 147.2512 83.3536 83.1488 134.7584 190.0544 147.2512 305.5616 3.2768 29.0816 2.6624 90.9312-0.8192 120.4224-14.1312 114.8928-63.8976 216.2688-146.432 299.008-82.944 83.1488-190.0544 134.7584-305.5616 147.2512-23.552 2.6624-94.0032 2.4576-117.3504-0.2048z m82.1248-160.3584c5.3248-3.072 11.0592-8.8064 14.1312-14.1312l5.12-8.8064V424.96h285.2864l8.8064-5.12c12.9024-7.5776 19.2512-19.456 19.2512-35.84s-6.3488-28.2624-19.2512-35.84l-8.8064-5.12H499.0976l-8.8064 5.12c-5.3248 3.072-11.0592 8.8064-14.1312 14.1312l-5.12 8.8064V710.2464l5.12 8.8064c7.5776 12.9024 19.2512 19.2512 35.6352 19.2512 10.4448 0 14.9504-1.024 21.9136-5.12z"  horiz-adv-x="1024" />

    
    <glyph glyph-name="flash" unicode="&#59735;" d="M771.84 459.946667l-298.666667-487.253334a32.426667 32.426667 0 0 0-27.306666-15.36h-8.533334a21.76 21.76 0 0 0-15.786666 6.826667 20.906667 20.906667 0 0 0-5.546667 16.213333l23.893333 275.626667H287.573333a32.426667 32.426667 0 0 0-27.733333 16.213333l-8.106667 14.08a20.906667 20.906667 0 0 0 0 21.76l298.666667 487.253334a32.426667 32.426667 0 0 0 28.16 15.36h8.533333a21.76 21.76 0 0 0 15.786667-6.826667 20.906667 20.906667 0 0 0 5.546667-16.213333L584.106667 512h152.32a32.426667 32.426667 0 0 0 27.733333-16.213333l8.106667-14.08a20.906667 20.906667 0 0 0-0.426667-21.76z"  horiz-adv-x="1024" />

    
    <glyph glyph-name="left" unicode="&#58883;" d="M589.0048 734.8224c-11.4688-11.6736-21.9136-26.8288-29.4912-43.2128-4.3008-9.4208-5.3248-14.7456-5.5296-28.0576 0-14.336 0.8192-17.8176 5.9392-27.0336 3.6864-6.5536 7.3728-10.8544 9.4208-10.8544 5.5296 0 33.3824 28.672 39.1168 40.1408 4.3008 8.6016 4.9152 12.9024 4.9152 30.5152 0 18.8416-0.6144 21.7088-6.5536 34.4064-3.6864 7.5776-6.9632 13.7216-7.3728 13.7216-0.4096 0-5.12-4.3008-10.4448-9.6256zM459.776 644.7104c-9.8304-33.792-11.264-63.488-3.6864-86.4256 3.8912-12.0832 20.6848-31.3344 29.0816-33.5872 10.0352-2.4576 21.504 28.672 21.7088 57.9584 0 17.8176-0.6144 20.6848-6.5536 32.768-6.5536 13.5168-18.8416 27.8528-30.72 36.4544l-6.3488 4.5056-3.4816-11.6736zM368.64 516.5056c0-9.216 10.24-44.8512 17.408-60.2112 8.192-17.6128 19.0464-32.1536 31.3344-41.5744 11.0592-8.6016 21.2992-12.0832 34.816-12.288h10.6496v15.9744c0 48.7424-26.2144 85.4016-69.632 97.6896-5.12 1.4336-12.6976 3.2768-16.7936 3.8912-7.168 1.2288-7.7824 1.024-7.7824-3.4816zM313.9584 382.3616c-5.5296-0.4096-8.8064-1.6384-8.8064-3.2768 0-4.096 18.8416-34.4064 30.5152-49.152 15.9744-20.0704 37.888-39.3216 53.248-46.8992 12.4928-6.144 14.9504-6.5536 34.4064-6.5536 11.4688 0 21.2992 0.6144 22.1184 1.2288 2.4576 2.4576-11.0592 33.5872-21.504 49.3568-25.3952 38.7072-65.1264 58.5728-109.9776 55.296zM342.016 216.8832c-9.6256-2.8672-18.2272-5.9392-19.0464-6.7584-2.6624-2.6624 30.72-32.3584 53.6576-47.5136 11.6736-7.5776 28.672-16.9984 37.888-20.48 14.5408-5.9392 19.0464-6.7584 37.0688-6.7584 18.432-0.2048 21.7088 0.4096 33.3824 5.7344 6.9632 3.2768 12.6976 6.5536 12.6976 7.168 0 3.8912-23.7568 31.5392-35.4304 41.3696-36.4544 30.72-77.2096 39.936-120.2176 27.2384zM465.1008 78.0288c-16.1792-4.096-42.5984-18.2272-55.5008-29.696l-11.264-9.8304 8.192-4.3008c4.5056-2.2528 16.384-6.9632 26.4192-10.4448 68.1984-23.9616 118.9888-20.48 147.6608 10.24l9.8304 10.4448-5.9392 4.9152c-8.6016 6.9632-40.96 22.528-55.0912 26.4192-16.9984 4.5056-50.3808 5.7344-64.3072 2.2528zM589.824-16.5888c-21.9136-5.7344-43.6224-18.2272-62.464-35.84-9.6256-9.216-16.9984-17.408-16.384-18.2272 1.4336-2.2528 43.2128-13.5168 65.536-17.6128 24.1664-4.5056 64.9216-4.5056 83.5584 0 16.9984 4.096 31.744 11.264 42.8032 21.2992 10.6496 9.6256 20.48 22.7328 18.6368 25.6-2.4576 4.096-36.2496 18.2272-55.296 23.1424-22.9376 5.7344-57.7536 6.5536-76.3904 1.6384z"  horiz-adv-x="1024" />

    
    <glyph glyph-name="right" unicode="&#58884;" d="M419.2256 730.7264c-5.9392-12.9024-6.5536-15.5648-6.5536-34.4064 0-17.6128 0.6144-21.9136 4.9152-30.5152 5.7344-11.4688 33.5872-40.1408 39.1168-40.1408 2.048 0 5.7344 4.3008 9.4208 10.8544 5.12 9.216 5.9392 12.6976 5.9392 27.0336 0 14.7456-0.8192 18.0224-7.5776 32.1536-7.9872 16.1792-22.528 36.0448-32.768 44.2368l-5.7344 4.9152-6.7584-14.1312zM552.5504 648.6016c-12.288-9.8304-21.2992-21.0944-28.0576-35.2256-9.8304-21.0944-6.144-60.2112 7.7824-83.3536 5.3248-8.6016 9.8304-7.168 23.552 6.5536 14.5408 14.336 18.6368 27.2384 18.432 56.32 0 19.6608-5.7344 51.4048-10.8544 60.8256-0.8192 1.6384-4.3008 0.2048-10.8544-5.12zM648.192 519.9872c-26.4192-5.5296-42.1888-13.312-56.5248-27.4432-18.432-18.432-28.4672-44.2368-28.4672-74.1376v-15.9744h10.8544c35.0208 0.4096 63.488 32.768 78.2336 89.088 2.8672 10.8544 5.12 22.1184 5.12 24.7808 0 4.9152-1.024 5.3248-9.216 3.6864zM694.272 382.5664c-38.7072-3.072-70.0416-21.9136-92.16-55.5008-10.4448-15.7696-23.9616-46.8992-21.504-49.3568 0.8192-0.6144 10.6496-1.2288 22.1184-1.2288 19.456 0 21.9136 0.4096 34.6112 6.7584 16.7936 8.192 40.1408 29.696 57.5488 52.8384 12.9024 16.9984 27.8528 42.8032 26.0096 44.4416-1.4336 1.4336-18.432 2.6624-26.624 2.048zM615.424 218.3168c-27.2384-7.7824-56.5248-28.672-76.1856-54.4768-5.9392-7.7824-10.8544-14.9504-10.8544-15.5648 0-0.6144 5.7344-3.8912 12.9024-7.168 11.4688-5.3248 14.7456-5.9392 33.1776-5.7344 18.0224 0 22.528 0.8192 37.0688 6.7584 9.216 3.4816 26.2144 12.9024 37.888 20.48 22.9376 15.1552 56.32 44.8512 53.6576 47.5136-0.8192 0.8192-9.8304 3.8912-19.8656 6.7584-21.9136 6.3488-48.7424 6.9632-67.7888 1.4336zM504.832 77.4144c-17.6128-3.6864-41.7792-13.9264-57.1392-24.1664-13.1072-8.8064-13.1072-9.6256 1.8432-23.3472 23.9616-22.1184 58.368-27.4432 107.7248-16.5888 19.0464 4.3008 49.3568 14.5408 62.2592 20.8896l8.192 4.3008-11.264 9.8304c-13.1072 11.6736-43.2128 27.2384-58.9824 30.3104-14.7456 3.072-35.2256 2.6624-52.6336-1.2288zM359.0144-18.432c-18.432-4.7104-52.0192-18.8416-54.4768-22.9376-1.8432-2.8672 7.9872-15.9744 18.6368-25.6 11.0592-10.0352 25.8048-17.2032 42.8032-21.2992 18.6368-4.5056 59.392-4.5056 83.5584 0 22.3232 4.096 64.1024 15.36 65.536 17.6128 0.6144 0.8192-6.7584 9.0112-16.384 18.2272-19.0464 18.0224-40.7552 30.3104-63.488 36.0448-19.0464 4.7104-53.248 3.8912-76.1856-2.048z"  horiz-adv-x="1024" />

    
    <glyph glyph-name="user" unicode="&#58925;" d="M576 189.388l0 52.78c70.498 39.728 128 138.772 128 237.832 0 159.058 0 288-192 288s-192-128.942-192-288c0-99.06 57.502-198.104 128-237.832l0-52.78c-217.102-17.748-384-124.42-384-253.388l896 0c0 128.968-166.898 235.64-384 253.388z"  horiz-adv-x="1024" />

    
    <glyph glyph-name="flag-fill" unicode="&#58914;" d="M888.96954469 759.19417792c0 26.03871267-24.85513481 19.52903449-32.54839083 11.83577848-14.7947231-15.97830095-53.8527921-48.52669178-137.2950304-65.68857058-13.01935633-2.95894462-25.44692373-4.14252246-38.46628008-4.14252247-40.24164684 0-73.97361552 13.01935633-112.43989559 28.40586836-44.38416932 17.16187881-94.68622786 36.6909133-163.33374306 36.69091329-5.91788924 0-11.83577849 0-17.75366773-0.59178892-74.56540444-3.55073354-139.07039718-36.09912437-185.82172219-60.36247026a1897.71566505 1897.71566505 0 0 0-41.42522468-20.12082342l-4.14252248 10.06041171-0.59178892 0.59178892c-6.50967817 15.38651203-24.26334589 22.48797912-39.64985792 15.97830095-7.10146709-2.95894462-13.01935633-8.87683386-15.97830095-16.57008987-2.95894462-7.10146709-2.95894462-15.97830095 0-23.07976805l308.32202949-730.26753241c4.7343114-11.24398956 15.38651203-18.34545665 27.81407943-18.34545665 4.14252246 0 8.28504494 0.59178892 11.83577849 2.3671557 15.38651203 6.50967817 22.48797912 24.26334589 15.97830095 39.64985792L358.13487972 215.34015662000002c13.61114525 22.48797912 43.79238039 60.36247027 101.78769496 76.34077121 18.34545665 4.7343114 37.28270222 7.69325602 57.99531456 7.69325601 39.64985792 0 78.11613799-8.87683386 118.94957376-18.34545665 37.28270222-8.28504494 75.15719337-17.16187881 112.43989559-17.16187879 56.21994779 0 99.42053926 19.52903449 136.70324149 60.95425919 1.18357785 1.77536678 2.3671557 5.91788924 2.95894461 9.46862278V759.19417792z"  horiz-adv-x="1024" />

    
    <glyph glyph-name="user1" unicode="&#58882;" d="M504.951 384.02c93.49 0 169.28 74.002 169.28 165.26 0 91.276-75.79 165.248-169.28 165.248-93.486 0-169.287-73.972-169.279-165.248-0.001-91.258 75.793-165.26 169.28-165.26z m77.6-55.098H441.466c-120.767 0-218.678-95.564-218.678-213.45V101.7c0-48.183 97.911-48.229 218.678-48.229H582.55c120.754 0 218.66 1.78 218.66 48.229v13.77c0 117.887-97.898 213.45-218.66 213.45z"  horiz-adv-x="1024" />

    
    <glyph glyph-name="53" unicode="&#58933;" d="M915.273-45.223c-24.688 0-44.693 20.012-44.693 44.694 0 64.45-130.516 238.728-202.401 270.248-13.996 6.139-23.889 19.015-26.216 34.123-2.327 15.11 3.23 30.364 14.723 40.431 48.418 42.396 76.176 103.361 76.176 167.266 0 122.689-99.818 222.507-222.506 222.507-122.688 0-222.507-99.817-222.507-222.507 0-63.926 27.758-124.892 76.147-167.266 11.494-10.067 17.051-25.314 14.723-40.423-2.328-15.109-12.206-27.984-26.202-34.124-71.885-31.541-202.385-205.82-202.385-270.255 0-24.682-20.012-44.694-44.693-44.694s-44.693 20.012-44.693 44.694c0 88.622 111.21 245.777 204.466 319.61-42.903 54.55-66.749 122.208-66.749 192.456 0 171.98 139.914 311.893 311.893 311.893s311.892-139.914 311.892-311.893c0-70.234-23.858-137.892-66.763-192.448 93.27-73.827 204.48-230.974 204.48-319.618-0.001-24.683-20.006-44.694-44.695-44.694z"  horiz-adv-x="1024" />

    
    <glyph glyph-name="59" unicode="&#58938;" d="M513.006-63.821c-120.124 0-233.052 46.778-317.993 131.714-84.949 84.948-131.727 197.883-131.727 318.007 0 120.125 46.778 233.052 131.727 317.993 84.928 84.935 197.87 131.715 317.993 131.715 120.112 0 233.052-46.778 317.994-131.714 175.348-175.354 175.334-460.661 0-635.994-84.943-84.943-197.87-131.721-317.994-131.721zM513.006 754.92c-98.573 0-191.251-38.386-260.945-108.082-69.701-69.701-108.089-162.372-108.089-260.939 0-98.574 38.387-191.244 108.088-260.952 69.709-69.694 162.372-108.081 260.945-108.081 98.574 0 191.238 38.386 260.946 108.088 143.881 143.875 143.881 377.991 0 521.885-69.708 69.694-162.383 108.081-260.945 108.081zM513.507 327.939c-22.287 0-40.344 18.063-40.344 40.343l0 224.621c0 22.279 18.057 40.344 40.344 40.344 22.286 0 40.344-18.064 40.344-40.344v-224.621c-0.001-22.279-18.058-40.343-40.344-40.343zM393.88 199.541c-10.322 0-20.644 3.94-28.524 11.812-15.759 15.759-15.759 41.303 0 57.055l119.624 119.639c15.733 15.759 41.289 15.753 57.048 0.006 15.759-15.759 15.759-41.302 0-57.055l-119.624-119.638c-7.866-7.879-18.202-11.819-28.525-11.819z"  horiz-adv-x="1024" />

    
    <glyph glyph-name="wangguan" unicode="&#58941;" d="M57 457.688l109.536-488.72h697.336l109.536 488.72-259.176-156.816-187.856 333.088-205.352-333.088zM629.048 684.112c0-58.912-47.752-106.656-106.672-106.656-58.92 0-106.664 47.744-106.664 106.656 0 58.976 47.744 106.656 106.664 106.656s106.672-47.688 106.672-106.656zM522.376 790.768c-58.92 0-106.664-47.68-106.664-106.656 0-58.912 47.744-106.656 106.664-106.656v213.312zM57 457.688l109.536-488.72h697.336zM973.408 457.688l-109.536-488.72h-697.336zM166.536-31.032h697.336l-348.672 211.2zM1017.856 486.56c0-0.002 0-0.005 0-0.008 0-30.486-24.714-55.2-55.2-55.2-0.023 0-0.045 0-0.067 0-0.006-0-0.017-0-0.029-0-30.477 0-55.184 24.707-55.184 55.184 0 0.008 0 0.017 0 0.025-0 0.018-0 0.040-0 0.063 0 30.486 24.714 55.2 55.2 55.2 0.006 0 0.011-0 0.017-0 0.018 0 0.041 0 0.063 0 30.486 0 55.2-24.714 55.2-55.2 0-0.023-0-0.045-0-0.068zM962.592 541.824c-0.005 0-0.010 0-0.016 0-30.486 0-55.2-24.714-55.2-55.2 0-0.023 0-0.045 0-0.067-0-0.004-0-0.012-0-0.021 0-30.477 24.707-55.184 55.184-55.184 0.011 0 0.023 0 0.034 0l-0.002 110.472zM116.656 486.56c-0.005-30.492-24.724-55.208-55.216-55.208-0.020 0-0.039 0-0.059 0-0.006-0-0.018-0-0.029-0-30.491 0-55.208 24.717-55.208 55.208 0 0 0 0 0 0-0 0.017-0 0.036-0 0.056 0 30.491 24.717 55.208 55.208 55.208 0.011 0 0.023-0 0.034-0 0.013 0 0.029 0 0.046 0 30.499 0 55.224-24.725 55.224-55.224 0-0.014-0-0.028-0-0.042zM61.384 541.824c-0.007 0-0.016 0-0.024 0-30.495 0-55.216-24.721-55.216-55.216 0-0.017 0-0.034 0-0.051-0 0-0-0.003-0-0.005 0-30.486 24.714-55.2 55.2-55.2 0.014 0 0.028 0 0.042 0l-0.002 110.472z"  horiz-adv-x="1024" />

    
    <glyph glyph-name="yg" unicode="&#58881;" d="M565.248 680.96c-15.36-27.648-22.528-30.72-65.536-30.72-54.272 0-53.248 2.048-67.584-102.4l-7.168-55.296-24.576 94.208C373.76 688.128 355.328 711.68 317.44 691.2c-18.432-9.216-20.48-23.552-22.528-146.432l-3.072-135.168-106.496-5.12c-87.04-4.096-108.544-8.192-117.76-22.528-18.432-29.696 5.12-52.224 66.56-66.56 30.72-8.192 66.56-19.456 78.848-25.6 36.864-19.456 65.536-66.56 65.536-108.544 0-67.584 40.96-86.016 77.824-34.816l21.504 27.648 192.512-50.176c240.64-62.464 253.952-64.512 263.168-39.936 5.12 13.312-1.024 24.576-21.504 40.96-15.36 13.312-31.744 23.552-35.84 23.552-5.12 0-8.192 5.12-8.192 10.24 0 6.144 25.6 10.24 57.344 10.24 61.44 0 96.256 13.312 96.256 35.84 0 18.432-34.816 35.84-141.312 71.68-69.632 22.528-83.968 30.72-78.848 45.056 60.416 156.672 59.392 181.248-9.216 171.008l-44.032-7.168-7.168 63.488c-3.072 34.816-6.144 79.872-6.144 100.352 0 65.536-39.936 83.968-69.632 31.744z m53.248-214.016c6.144-9.216 22.528-12.288 54.272-8.192 30.72 3.072 43.008 1.024 39.936-7.168-23.552-57.344-49.152-150.528-44.032-162.816 3.072-9.216 37.888-25.6 80.896-37.888 133.12-39.936 137.216-45.056 44.032-51.2-74.752-5.12-81.92-7.168-84.992-27.648-3.072-17.408 4.096-26.624 30.72-37.888 60.416-26.624 10.24-17.408-164.864 29.696-203.776 54.272-220.16 56.32-240.64 18.432l-15.36-28.672L317.44 189.44c-1.024 74.752-60.416 132.096-160.768 154.624-29.696 7.168-54.272 16.384-54.272 20.48 0 5.12 49.152 10.24 110.592 11.264l109.568 3.072 3.072 141.312c1.024 76.8 6.144 140.288 10.24 140.288 9.216 0 50.176-139.264 55.296-184.32 2.048-17.408 10.24-26.624 25.6-28.672 27.648-4.096 44.032 28.672 44.032 84.992 0 41.984 19.456 62.464 70.656 76.8 25.6 7.168 43.008 19.456 53.248 37.888 13.312 26.624 14.336 22.528 19.456-68.608 3.072-53.248 9.216-103.424 14.336-111.616z"  horiz-adv-x="1024" />

    
    <glyph glyph-name="warning" unicode="&#58887;" d="M475.428571 18.285713999999984C256 18.285713999999984 73.142857 201.14285700000005 73.142857 420.571429S256 822.857143 475.428571 822.857143 877.714286 640 877.714286 420.571429 694.857143 18.285713999999984 475.428571 18.285713999999984m0 877.714286C212.114286 896 0 683.885714 0 420.571429S212.114286-54.85714299999995 475.428571-54.85714299999995 950.857143 157.25714300000004 950.857143 420.571429 738.742857 896 475.428571 896m0-219.428571c-21.942857 0-36.571429-14.628571-36.571428-36.571429v-292.571429c0-21.942857 14.628571-36.571429 36.571428-36.571428s36.571429 14.628571 36.571429 36.571428v292.571429c0 21.942857-14.628571 36.571429-36.571429 36.571429m0-438.857143c-21.942857 0-36.571429-14.628571-36.571428-36.571429s14.628571-36.571429 36.571428-36.571428 36.571429 14.628571 36.571429 36.571428-14.628571 36.571429-36.571429 36.571429"  horiz-adv-x="1024" />

    
    <glyph glyph-name="not_started" unicode="&#58893;" d="M512-54.85714299999995c241.371429 0 438.857143 197.485714 438.857143 438.857143s-197.485714 438.857143-438.857143 438.857143-438.857143-197.485714-438.857143-438.857143 197.485714-438.857143 438.857143-438.857143z m0-73.142857c-285.257143 0-512 226.742857-512 512s226.742857 512 512 512 512-226.742857 512-512-226.742857-512-512-512z m0 658.285714c80.457143 0 146.285714-65.828571 146.285714-146.285714s-65.828571-146.285714-146.285714-146.285714-146.285714 65.828571-146.285714 146.285714 65.828571 146.285714 146.285714 146.285714z"  horiz-adv-x="1024" />

    
    <glyph glyph-name="big-circle" unicode="&#58904;" d="M512-54.85714299999995c241.371429 0 438.857143 197.485714 438.857143 438.857143s-197.485714 438.857143-438.857143 438.857143-438.857143-197.485714-438.857143-438.857143 197.485714-438.857143 438.857143-438.857143z m0-73.142857c-285.257143 0-512 226.742857-512 512s226.742857 512 512 512 512-226.742857 512-512-226.742857-512-512-512z"  horiz-adv-x="1024" />

    
    <glyph glyph-name="ziyuanldpi" unicode="&#58892;" d="M512 64a64 64 0 0 0-45.44 18.56l-320 320a64 64 0 0 0-13.44 69.76A64 64 0 0 0 192 512h128V832a64 64 0 0 0 64 64h256a64 64 0 0 0 64-64v-320h128a64 64 0 0 0 58.88-39.68 64 64 0 0 0-13.44-69.76l-320-320A64 64 0 0 0 512 64zM346.24 384L512 218.24 677.76 384H640a64 64 0 0 0-64 64V768H448v-320a64 64 0 0 0-64-64zM960-128H64a64 64 0 0 0-64 64v192a64 64 0 0 0 128 0v-128h768v128a64 64 0 0 0 128 0v-192a64 64 0 0 0-64-64z"  horiz-adv-x="1024" />

    
    <glyph glyph-name="ziyuanldpi1" unicode="&#58896;" d="M512 896a512 512 0 1 1 512-512 512 512 0 0 1-512 512z m384-512a384 384 0 0 0-71.04-222.08L289.92 696.96A384 384 0 0 0 896 384zM128 384a384 384 0 0 0 71.04 222.08l535.04-535.04A384 384 0 0 0 128 384z"  horiz-adv-x="1024" />

    
    <glyph glyph-name="ziyuanldpi2" unicode="&#58897;" d="M810.476403 384.0742a85.287562 85.287562 0 0 0-24.733393-60.554169l-426.437812-426.437812a85.287562 85.287562 0 0 0-121.108338 121.108339L604.933378 384.0742 238.19686 749.957843A85.287562 85.287562 0 0 0 359.305198 871.066181l426.437812-426.437812A85.287562 85.287562 0 0 0 810.476403 384.0742z"  horiz-adv-x="1024" />

    
    <glyph glyph-name="ziyuanldpi3" unicode="&#58899;" d="M213.15968 384.174874a85.304188 85.304188 0 0 0 24.738214 60.565973l426.520939 426.520939a85.304188 85.304188 0 0 0 121.131947-121.131947L418.742772 384.174874l366.808008-365.954966a85.304188 85.304188 0 1 0-121.131947-121.131946l-426.520939 426.520938A85.304188 85.304188 0 0 0 213.15968 384.174874z"  horiz-adv-x="1024" />

    
    <glyph glyph-name="ziyuanldpi4" unicode="&#58900;" d="M84.917488-121.691102a84.422555 84.422555 0 0 0-59.940014 24.48254 84.422555 84.422555 0 0 0 0 119.880028L389.68291 384.844226 31.731279 747.861211A84.422555 84.422555 0 1 0 151.611306 866.052787L507.030261 506.412704 869.203021 866.897013a84.422555 84.422555 0 1 0 119.880028-119.880028L627.754515 384.844226l361.328534-364.705437a84.422555 84.422555 0 1 0-119.880028-118.191576L507.030261 266.652649l-362.172759-363.861211A84.422555 84.422555 0 0 0 84.917488-121.691102z"  horiz-adv-x="1029" />

    
    <glyph glyph-name="ziyuanldpi5" unicode="&#58902;" d="M512.283136-127.99897599999997a102.399693 102.399693 0 0 0-72.703782 29.695911l-409.598771 409.598771a102.399693 102.399693 0 0 0 145.407564 145.407564l325.631023-326.65502L1044.761539 855.038075a102.399693 102.399693 0 1 0 163.839508-122.879631l-614.398157-819.197543a102.399693 102.399693 0 0 0-74.751775-40.959877z"  horiz-adv-x="1229" />

    
    <glyph glyph-name="xiala" unicode="&#58964;" d="M787.2 515.2c-9.6 9.6-22.4 12.8-35.2 12.8l-480-3.2c-12.8 0-25.6-3.2-35.2-12.8-19.2-19.2-19.2-48 0-67.2l240-240c3.2-3.2 9.6-6.4 12.8-9.6l3.2-3.2c16-6.4 38.4-3.2 51.2 9.6l240 243.2c22.4 22.4 19.2 51.2 3.2 70.4z"  horiz-adv-x="1024" />

    
    <glyph glyph-name="car" unicode="&#58880;" d="M999.98 544h-119.74l-33.28 83.2C812.76 712.74 731.14 768 639 768h-254c-92.12 0-173.76-55.26-207.98-140.8L143.74 544H24.02C8.4 544-3.06 529.32 0.74 514.18l12-48C15.4 455.5 25 448 36.02 448h40.14C49.3 424.54 32 390.44 32 352v-96c0-32.24 12.32-61.34 32-83.86V64c0-35.34 28.66-64 64-64h64c35.34 0 64 28.66 64 64v64h512v-64c0-35.34 28.66-64 64-64h64c35.34 0 64 28.66 64 64v108.14c19.68 22.5 32 51.6 32 83.86v96c0 38.44-17.3 72.54-44.14 96H988c11.02 0 20.62 7.5 23.28 18.18l12 48c3.78 15.14-7.68 29.82-23.3 29.82z m-704.12 35.66c14.58 36.44 49.88 60.34 89.14 60.34h254c39.26 0 74.56-23.9 89.14-60.34L768 480H256l39.86 99.66zM192 256.4c-38.4 0-64 25.52-64 63.8S153.6 384 192 384s96-57.42 96-95.7-57.6-31.9-96-31.9z m640 0c-38.4 0-96-6.38-96 31.9S793.6 384 832 384s64-25.52 64-63.8-25.6-63.8-64-63.8z"  horiz-adv-x="1024" />

    
    <glyph glyph-name="chongwu1" unicode="&#60503;" d="M528.2816 34.5088c61.1328 0 94.2592-14.9504 124.8256-37.2736 82.6368-61.184 136.3456-16.5888 181.8112 26.5216 96.7168 97.5872 47.104 181.1968-53.7088 315.2896-122.2656 180.48-252.928 178.2784-252.928 178.2784h-8.6528s-131.84 1.0752-252.928-178.2784C165.888 205.0048 116.2752 121.344 212.992 23.7568c45.5168-43.1104 99.1744-87.7568 181.8112-26.5216 30.5664 22.3232 63.6416 37.2736 124.8256 37.2736h8.6528zM281.3952 703.3344s-46.3872-180.736 93.4912-163.3792c139.8784 17.3568 72.8064 156.4672 53.5552 183.7056-14.0288 19.8144-53.5552 66.7648-84.224 63.1808S287.0784 731.8528 281.3952 703.3344zM85.0944 423.5264s21.0432-123.5456 114.1248-59.7504 1.792 122.5216-20.3776 131.6864c-16.1792 6.7072-58.88 20.1216-79.36 6.1952s-18.8928-56.9344-14.3872-78.1312z m681.7792 279.808s46.3872-180.736-93.4912-163.3792c-139.8784 17.3568-72.8064 156.4672-53.5552 183.7056 14.0288 19.8144 53.5552 66.7648 84.224 63.1808s57.088-54.9888 62.8224-83.5072z m196.3008-279.808s-21.0432-123.5456-114.1248-59.7504-1.792 122.5216 20.3776 131.6864c16.128 6.7072 58.88 20.1216 79.36 6.1952s18.8928-56.9344 14.3872-78.1312z"  horiz-adv-x="1024" />

    
    <glyph glyph-name="danxuan" unicode="&#59026;" d="M352 384c0-88.366 71.634-160 160-160s160 71.634 160 160c0 88.366-71.634 160-160 160-88.366 0-160-71.634-160-160zM512 832c-246.4 0-448-201.6-448-448s201.6-448 448-448 448 201.6 448 448-201.6 448-448 448zM512 0c-211.2 0-384 172.8-384 384s172.8 384 384 384 384-172.8 384-384-172.8-384-384-384z"  horiz-adv-x="1024" />

    
    <glyph glyph-name="tick" unicode="&#58885;" d="M607.085714 552.228571L424.228571 369.37142900000003 343.771429 449.828571c-14.628571 7.314286-36.571429 7.314286-51.2 0-14.628571-14.628571-14.628571-43.885714 0-58.514285l102.4-102.4c14.628571-14.628571 36.571429-14.628571 51.2 0L658.285714 501.028571c14.628571 14.628571 14.628571 36.571429 0 51.2-14.628571 14.628571-36.571429 14.628571-51.2 0M475.428571 18.285713999999984C256 18.285713999999984 73.142857 201.14285700000005 73.142857 420.571429S256 822.857143 475.428571 822.857143 877.714286 640 877.714286 420.571429 694.857143 18.285713999999984 475.428571 18.285713999999984m0 877.714286C212.114286 896 0 683.885714 0 420.571429S212.114286-54.85714299999995 475.428571-54.85714299999995 950.857143 157.25714300000004 950.857143 420.571429 738.742857 896 475.428571 896"  horiz-adv-x="1024" />

    
    <glyph glyph-name="cross" unicode="&#58886;" d="M475.428571 18.285713999999984C256 18.285713999999984 73.142857 201.14285700000005 73.142857 420.571429S256 822.857143 475.428571 822.857143 877.714286 640 877.714286 420.571429 694.857143 18.285713999999984 475.428571 18.285713999999984m0 877.714286C212.114286 896 0 683.885714 0 420.571429S212.114286-54.85714299999995 475.428571-54.85714299999995 950.857143 157.25714300000004 950.857143 420.571429 738.742857 896 475.428571 896m131.657143-343.771429c-14.628571 14.628571-36.571429 14.628571-51.2 0L475.428571 471.771429 394.971429 552.228571c-14.628571 14.628571-36.571429 14.628571-51.2 0s-14.628571-36.571429 0-51.2l80.457142-80.457142-80.457142-80.457143c-14.628571-14.628571-14.628571-36.571429 0-51.2 14.628571-14.628571 36.571429-14.628571 51.2 0l80.457142 80.457143 80.457143-80.457143c14.628571-14.628571 36.571429-14.628571 51.2 0 14.628571 14.628571 14.628571 36.571429 0 51.2L526.628571 420.571429l80.457143 80.457142c14.628571 14.628571 14.628571 36.571429 0 51.2"  horiz-adv-x="1024" />

    
    <glyph glyph-name="sort" unicode="&#59449;" d="M695.04 286.293333L512 102.826667l-183.04 183.466666a42.666667 42.666667 0 0 1-60.586667-60.586666l213.333334-213.333334a42.666667 42.666667 0 0 1 60.586666 0l213.333334 213.333334a42.666667 42.666667 0 0 1-60.586667 60.586666zM328.96 481.706667L512 665.173333l183.04-183.466666a42.666667 42.666667 0 0 1 60.586667 0 42.666667 42.666667 0 0 1 0 60.586666l-213.333334 213.333334a42.666667 42.666667 0 0 1-60.586666 0l-213.333334-213.333334a42.666667 42.666667 0 0 1 60.586667-60.586666z"  horiz-adv-x="1024" />

    
    <glyph glyph-name="shaixuan1" unicode="&#59230;" d="M129.02058125 700.44338378L357.60708125 470.38608604a8.17109912 8.17109912 0 0 0 2.41047422-5.76062491v-376.15655039c0-25.77981797 13.48231377-49.68028301 35.54428096-62.9991747l134.16944853-80.89388262a73.53989297 73.53989297 0 0 1 111.5355041 62.99917471V462.8686752a8.17109912 8.17109912 0 0 0 2.77817344 6.12832412l260.90319727 227.89195664A73.53989297 73.53989297 0 0 1 856.53439737 825.82890088H181.19304951a73.53989297 73.53989297 0 0 1-52.17246826-125.38551709zM175.39156865 746.56923896a8.17109912 8.17109912 0 0 0 5.80148086 13.93172403h675.34134786a8.17109912 8.17109912 0 0 0 5.39292568-14.29942413L601.06498086 518.22787207a73.53989297 73.53989297 0 0 1-25.16698565-55.40005283v-455.33450215a8.17109912 8.17109912 0 0 0-12.42007031-7.02714462l-134.16944853 80.89388173a8.17109912 8.17109912 0 0 0-3.92212793 7.02714551V464.58460605a73.53989297 73.53989297 0 0 1-21.36742383 51.84562413L175.35071357 746.528383zM736.70522802 311.04965185000003h163.42198331a32.68439648 32.68439648 0 1 1 0 65.36879385h-163.4219833a32.68439648 32.68439648 0 1 1-1e-8-65.36879385zM735.15271836 188.48316416h163.42198418a32.68439648 32.68439648 0 1 1-1e-8 65.36879385h-163.42198417a32.68439648 32.68439648 0 1 1 0-65.36879385zM728.0438627 65.91667645999996h163.42198329a32.68439648 32.68439648 0 1 1 0 65.36879385h-163.42198329a32.68439648 32.68439648 0 1 1 0-65.36879385z"  horiz-adv-x="1024" />

    
    <glyph glyph-name="flag1196069easyiconnet" unicode="&#58928;" d="M867.632 694.224c-5.408 5.376-11.776 8.08-19.136 8.08-3.664 0-11.392-3.008-23.136-8.944-11.76-5.952-24.24-12.576-37.376-19.968-13.168-7.344-28.752-14-46.736-19.952-17.968-5.936-34.608-8.944-49.92-8.944-14.144 0-26.624 2.688-37.376 8.08-35.664 16.704-66.688 29.168-93.024 37.392-26.336 8.208-54.656 12.336-84.976 12.336-52.352 0-111.984-17.024-178.832-51.008-13.792-6.88-23.68-12.208-30.08-16.112l-6.352 46.576c14.352 12.464 23.616 30.624 23.616 51.12 0 37.552-30.432 67.984-67.984 67.984-37.552 0-67.984-30.432-67.984-67.984 0-24.496 13.088-45.792 32.512-57.76l91.84-673.44c2.736-20.048 19.888-34.592 39.584-34.592 1.792 0 3.616 0.112 5.456 0.352 21.888 3.008 37.216 23.152 34.224 45.04L315.04 283.152c66.976 33.232 124.912 49.984 173.648 49.984 20.688 0 40.864-3.088 60.528-9.328 19.68-6.256 36.048-13.04 49.072-20.384 13.024-7.36 28.4-14.176 46.08-20.384 17.712-6.24 35.2-9.36 52.464-9.36 43.616 0 95.856 16.432 156.736 49.28 7.648 3.968 13.248 7.872 16.784 11.696 3.536 3.824 5.312 9.264 5.312 16.336L875.664 675.104C875.664 682.448 872.992 688.832 867.632 694.224z"  horiz-adv-x="1024" />

    
    <glyph glyph-name="sousuo" unicode="&#59071;" d="M881.3 122.3L768.6 234.6c36.3 56.2 57.4 123 57.4 194.9 0 198.6-160.8 359.4-359.4 359.4s-359.4-161-359.4-359.4c0-198.6 160.8-359.4 359.4-359.4 72 0 139.1 21.2 195.3 57.6l112.5-112.1c32-31.9 81.9-33.9 111.4-4.5 29.4 29.4 27.4 79.3-4.5 111.2z m-414.9 67.4c-132.2 0-239.6 107.2-239.6 239.6 0 132.2 107.2 239.6 239.6 239.6S706 561.7 706 429.3c-0.2-132.4-107.4-239.6-239.6-239.6z"  horiz-adv-x="1024" />

    
    <glyph glyph-name="chongwu" unicode="&#59055;" d="M170.666667 486.4c0-46.32381 39.009524-85.333333 85.333333-85.333333s85.333333 39.009524 85.333333 85.333333-39.009524 85.333333-85.333333 85.333333S170.666667 532.72381 170.666667 486.4z m153.6 136.533333c0-46.32381 39.009524-85.333333 85.333333-85.333333s85.333333 39.009524 85.333333 85.333333-39.009524 85.333333-85.333333 85.333334-85.333333-39.009524-85.333333-85.333334z m204.8 0c0-46.32381 39.009524-85.333333 85.333333-85.333333s85.333333 39.009524 85.333333 85.333333-39.009524 85.333333-85.333333 85.333334-85.333333-39.009524-85.333333-85.333334z m153.6-136.533333c0-46.32381 39.009524-85.333333 85.333333-85.333333s85.333333 39.009524 85.333333 85.333333-39.009524 85.333333-85.333333 85.333333-85.333333-39.009524-85.333333-85.333333z m12.190476-182.857143c-29.257143 34.133333-53.638095 63.390476-85.333333 99.961905-17.066667 19.504762-36.571429 36.571429-58.514286 43.885714-2.438095 0-7.314286 2.438095-12.190476 2.438095-9.752381 2.438095-17.066667 2.438095-26.819048 2.438096s-17.066667 0-26.819048-2.438096c-4.87619 0-7.314286-2.438095-12.190476-2.438095-24.380952-7.314286-43.885714-26.819048-58.514286-43.885714-29.257143-34.133333-53.638095-63.390476-85.333333-99.961905-43.885714-43.885714-99.961905-95.085714-90.209524-163.352381 9.752381-34.133333 34.133333-68.266667 80.457143-80.457143 24.380952-4.87619 104.838095 14.628571 190.171429 14.628572h4.87619c85.333333 0 163.352381-19.504762 190.171429-14.628572 43.885714 9.752381 70.704762 43.885714 80.457143 80.457143 9.752381 68.266667-46.32381 119.466667-90.209524 163.352381z"  horiz-adv-x="1024" />

    
    <glyph glyph-name="star" unicode="&#58944;" d="M565.228999 861.310366l112.062243-237.506364c8.702621-18.317097 25.411973-31.05108 44.816898-33.994614l250.736267-38.073966c48.688285-7.406826 68.213191-70.036902 32.930782-105.95921L824.307945 260.869513c-13.997782-14.237744-20.348775-34.810484-17.053298-54.927296l42.809217-261.086627c8.342678-50.687968-42.633244-89.441827-86.210339-65.50962l-224.276461 123.252469a57.030963 57.030963 0 0 1-55.271241 0l-224.276461-123.260467c-43.577095-23.91621-94.553017 14.82965-86.20234 65.509619l42.809216 261.094626c3.319474 20.116812-3.095509 40.697551-17.085293 54.927296L18.147691 445.776212C-17.126719 481.69852 2.326198 544.328596 51.070474 551.735422l250.704273 38.073966c19.348934 2.943534 36.074284 15.677516 44.752908 33.994614L458.63789 861.310366c21.820542 46.152687 84.826558 46.152687 106.58311 0z"  horiz-adv-x="1024" />

    
    <glyph glyph-name="paixu-" unicode="&#58901;" d="M486.71 732.52L294.4 478.06c-15.78-20.88-0.89-50.81 25.29-50.81H704.3c26.18 0 41.07 29.93 25.29 50.81l-192.3 254.46c-12.68 16.79-37.9 16.79-50.58 0zM486.57 35.54L294.61 289.56c-15.87 20.99-0.89 51.08 25.43 51.08h383.94c26.32 0 41.29-30.09 25.43-51.08L537.43 35.54c-12.76-16.87-38.1-16.87-50.86 0z"  horiz-adv-x="1024" />

    
    <glyph glyph-name="xia" unicode="&#58903;" d="M310.613333 502.613333a32 32 0 0 1-45.226666-45.226666l213.333333-213.333334a32 32 0 0 1 45.226667 0l213.333333 213.333334a32 32 0 0 1-45.226667 45.226666l-190.72-190.72-190.72 190.72z"  horiz-adv-x="1024" />

    
    <glyph glyph-name="shaixuan" unicode="&#59063;" d="M707.101 812a57.559 57.559 0 0 0 35-11.862c25.211-19.31 29.98-55.384 10.65-80.57l-240.649-313.56v-367.325a43.64 43.64 0 0 0-4.632-19.566l-0.52-1.006c-11.374-21.277-37.858-29.316-59.157-17.954L340.92 57.17c-26.222 13.989-42.598 41.272-42.598 70.97V404.783L55.933 719.49a57.432 57.432 0 0 0-11.922 33.893L44 754.533C44 786.271 69.754 812 101.522 812z m192.987-694.197c16.52 0 29.912-13.38 29.912-29.883 0-16.268-13.012-29.5-29.206-29.874l-0.706-0.008H614.771c-16.52 0-29.911 13.378-29.911 29.882 0 16.268 13.012 29.5 29.205 29.875l0.706 0.008h285.317z m0 160.906c16.52 0 29.912-13.378 29.912-29.882 0-16.268-13.012-29.5-29.206-29.875l-0.706-0.008H614.771c-16.52 0-29.911 13.38-29.911 29.883 0 16.268 13.012 29.5 29.205 29.874l0.706 0.008h285.317z m0 160.907c16.52 0 29.912-13.379 29.912-29.883 0-16.268-13.012-29.5-29.206-29.874l-0.706-0.008H614.771c-16.52 0-29.911 13.379-29.911 29.882 0 16.268 13.012 29.5 29.205 29.875l0.706 0.008h285.317z"  horiz-adv-x="1025" />

    
    <glyph glyph-name="tubiao215" unicode="&#58898;" d="M879.243 297.19c-16.324 43.266-79.32 141.552-80.064 190.942l-0.375 0c0.126 2.628 0.375 5.254 0.375 7.877 0 179.445-128.665 324.87-287.365 324.87-158.764 0-287.368-145.425-287.368-324.87 0-2.623 0.252-5.249 0.312-7.877l-0.312 0c-0.743-49.391-63.677-147.675-80.063-190.942-16.387-43.391-20.485-87.156-12.912-121.922 7.573-34.635 13.778-56.144 20.979-62.896 7.138-6.877 13.965-14.13 35.628 1.126 17.377 14.381 36.368 43.641 36.368 43.641s15.704-45.39 50.77-80.03c-27.497-13.003-67.278-41.89-70.134-60.771-2.731-18.759 41.708-90.159 146.102-91.784 104.397-1.5 139.09 43.642 142.507 47.144 9.742 10.253 18.122 16.504 18.122 16.504s8.441-6.251 18.124-16.504c3.411-3.502 38.106-48.644 142.503-47.144 104.392 1.626 148.833 73.025 146.041 91.784-2.795 18.881-42.639 47.768-70.073 60.771 35.003 34.641 50.771 80.03 50.771 80.03s18.992-29.26 36.372-43.641c21.598-15.255 28.424-8.002 35.623-1.126 7.201 6.752 13.347 28.261 20.979 62.896 7.574 34.765 3.418 78.53-12.909 121.922z"  horiz-adv-x="1025" />

    
    <glyph glyph-name="bilibili-fill" unicode="&#59228;" d="M777.514667 764.330667a53.333333 53.333333 0 0 0 0-75.434667L728.746667 640.170667h49.92A160 160 0 0 0 938.666667 480.128v-320a160 160 0 0 0-160-160H245.333333A160 160 0 0 0 85.333333 160.128v320a160 160 0 0 0 160 160h49.749334L246.4 688.853333a53.333333 53.333333 0 1 0 75.392 75.434667l113.152-113.152c3.370667-3.370667 6.186667-7.04 8.448-10.965333h137.088c2.261333 3.925333 5.12 7.68 8.490667 11.008l113.109333 113.152a53.333333 53.333333 0 0 0 75.434667 0z m1.152-231.253334H245.333333a53.333333 53.333333 0 0 1-53.205333-49.365333l-0.128-4.010667v-320c0-28.117333 21.76-51.157333 49.365333-53.162666l3.968-0.170667h533.333334a53.333333 53.333333 0 0 1 53.205333 49.365333l0.128 3.968v320c0 29.44-23.893333 53.333333-53.333333 53.333334z m-426.666667-106.666666c29.44 0 53.333333-23.893333 53.333333-53.333334v-53.333333a53.333333 53.333333 0 1 0-106.666666 0v53.333333c0 29.44 23.893333 53.333333 53.333333 53.333334z m320 0c29.44 0 53.333333-23.893333 53.333333-53.333334v-53.333333a53.333333 53.333333 0 1 0-106.666666 0v53.333333c0 29.44 23.893333 53.333333 53.333333 53.333334z"  horiz-adv-x="1024" />

    


  </font>
</defs>
</svg>
